<?xml version="1.0" encoding="utf-8" standalone="no"?><!DOCTYPE svg PUBLIC "-//W3C//DTD SVG 20010904//EN" "http://www.w3.org/TR/2001/REC-SVG-20010904/DTD/svg10.dtd"><svg xmlns="http://www.w3.org/2000/svg" width="559" height="408" xmlns:xlink="http://www.w3.org/1999/xlink"><source><![CDATA[Client-->>aReceiver: new Receiver()
Client-->>anInvoker: new Invoker()
Client-->>aCommand: new Command(aReceiver)
Client->>anInvoker: StoreCommand(key,aCommand)
Client->>anInvoker: Execute(key)
anInvoker->>aCommand: Execute() 
aCommand->>aReceiver: Action()]]></source><desc></desc><defs><marker viewBox="0 0 5 5" markerWidth="5" markerHeight="5" orient="auto" refX="5" refY="2.5" id="markerArrowBlock"><path d="M 0 0 L 5 2.5 L 0 5 z"></path></marker><marker viewBox="0 0 9.6 16" markerWidth="4" markerHeight="16" orient="auto" refX="9.6" refY="8" id="markerArrowOpen"><path d="M 9.6,8 1.92,16 0,13.7 5.76,8 0,2.286 1.92,0 9.6,8 z"></path></marker></defs><g class="title"></g><g class="actor"><path d="M10,20C27.6,17.1 55.2,22.9 82.1,20.0C83.5,28.8 80.6,48.0 82.1,56.8C27.3,53.9 23.6,59.7 10.0,56.8C8.5,36.5 11.5,50.9 10.0,20.0" stroke="#000000" fill="#ffffff" style="stroke-width: 2;"></path><text x="20" y="43.609375" style="font-size: 16px; font-family: danielbd;"><tspan x="20">Client</tspan></text></g><g class="actor"><path d="M10,351.296875C47.5,354.2 64.8,348.4 82.1,351.3C83.5,375.7 80.6,375.8 82.1,388.1C48.6,391.0 30.5,385.2 10.0,388.1C11.5,360.2 8.5,364.5 10.0,351.3" stroke="#000000" fill="#ffffff" style="stroke-width: 2;"></path><text x="20" y="374.90625" style="font-size: 16px; font-family: danielbd;"><tspan x="20">Client</tspan></text></g><path d="M46.0,56.8C57.8,268.5 34.3,304.2 46.0,351.3" stroke="#000000" fill="none" style="stroke-width: 2;"></path><g class="actor"><path d="M136.0859375,20C211.5,24.0 164.2,16.0 235.4,20.0C233.9,31.9 236.8,26.9 235.4,56.8C190.1,60.8 201.5,52.8 136.1,56.8C134.6,46.0 137.6,48.0 136.1,20.0" stroke="#000000" fill="#ffffff" style="stroke-width: 2;"></path><text x="146.0859375" y="43.2109375" style="font-size: 16px; font-family: danielbd;"><tspan x="146.0859375">aReceiver</tspan></text></g><g class="actor"><path d="M136.0859375,351.296875C159.9,347.3 157.6,355.3 235.4,351.3C236.8,361.1 233.9,373.2 235.4,388.1C219.5,392.1 210.8,384.1 136.1,388.1C137.6,378.9 134.6,368.9 136.1,351.3" stroke="#000000" fill="#ffffff" style="stroke-width: 2;"></path><text x="146.0859375" y="374.5078125" style="font-size: 16px; font-family: danielbd;"><tspan x="146.0859375">aReceiver</tspan></text></g><path d="M185.7,56.8C173.9,127.5 197.5,192.4 185.7,351.3" stroke="#000000" fill="none" style="stroke-width: 2;"></path><g class="actor"><path d="M293.59375,20C368.6,16.1 333.7,23.9 392.3,20.0C393.7,33.5 390.8,38.2 392.3,56.8C317.3,52.9 313.1,60.8 293.6,56.8C295.1,50.9 292.1,33.8 293.6,20.0" stroke="#000000" fill="#ffffff" style="stroke-width: 2;"></path><text x="303.59375" y="43.2109375" style="font-size: 16px; font-family: danielbd;"><tspan x="303.59375">anInvoker</tspan></text></g><g class="actor"><path d="M293.59375,351.296875C309.4,355.2 352.0,347.4 392.3,351.3C393.7,382.2 390.8,364.4 392.3,388.1C317.3,384.2 359.8,392.1 293.6,388.1C292.1,381.8 295.1,373.8 293.6,351.3" stroke="#000000" fill="#ffffff" style="stroke-width: 2;"></path><text x="303.59375" y="374.5078125" style="font-size: 16px; font-family: danielbd;"><tspan x="303.59375">anInvoker</tspan></text></g><path d="M342.9,56.8C331.1,147.1 354.7,280.6 342.9,351.3" stroke="#000000" fill="none" style="stroke-width: 2;"></path><g class="actor"><path d="M412.25,20C510.8,15.3 491.3,24.7 529.5,20.0C531.0,41.4 528.1,28.8 529.5,56.8C440.4,61.5 501.4,52.1 412.3,56.8C410.8,30.5 413.7,39.8 412.3,20.0" stroke="#000000" fill="#ffffff" style="stroke-width: 2;"></path><text x="422.25" y="43.609375" style="font-size: 16px; font-family: danielbd;"><tspan x="422.25">aCommand</tspan></text></g><g class="actor"><path d="M412.25,351.296875C476.8,356.0 510.8,346.6 529.5,351.3C528.1,376.1 531.0,379.3 529.5,388.1C485.0,383.4 501.4,392.8 412.3,388.1C410.8,376.6 413.7,382.2 412.3,351.3" stroke="#000000" fill="#ffffff" style="stroke-width: 2;"></path><text x="422.25" y="374.90625" style="font-size: 16px; font-family: danielbd;"><tspan x="422.25">aCommand</tspan></text></g><path d="M470.9,56.8C482.7,127.5 459.1,103.9 470.9,351.3" stroke="#000000" fill="none" style="stroke-width: 2;"></path><g class="signal"><text x="56.03125" y="87.4140625" style="font-size: 16px; font-family: danielbd;"><tspan x="56.03125">new Receiver()</tspan></text><path d="M46.0,94.4C131.5,88.8 69.8,100.0 185.7,94.4" stroke="#000000" fill="none" style="stroke-width: 2; stroke-dasharray: 6, 2; marker-end: url(&quot;#markerArrowOpen&quot;);"></path></g><g class="signal"><text x="139.2734375" y="125.0234375" style="font-size: 16px; font-family: danielbd;"><tspan x="139.2734375">new Invoker()</tspan></text><path d="M46.0,132.0C143.1,120.2 93.5,143.9 342.9,132.0" stroke="#000000" fill="none" style="stroke-width: 2; stroke-dasharray: 6, 2; marker-end: url(&quot;#markerArrowOpen&quot;);"></path></g><g class="signal"><text x="150.07421875" y="162.6328125" style="font-size: 16px; font-family: danielbd;"><tspan x="150.07421875">new Command(aReceiver)</tspan></text><path d="M46.0,169.6C178.7,186.6 125.5,152.6 470.9,169.6" stroke="#000000" fill="none" style="stroke-width: 2; stroke-dasharray: 6, 2; marker-end: url(&quot;#markerArrowOpen&quot;);"></path></g><g class="signal"><text x="56.84375" y="197.4375" style="font-size: 16px; font-family: danielbd;"><tspan x="56.03125">StoreCommand(key,aCommand)</tspan></text><path d="M46.0,212.9C140.0,201.0 93.5,224.7 342.9,212.9" stroke="#000000" fill="none" style="stroke-width: 2; marker-end: url(&quot;#markerArrowOpen&quot;);"></path></g><g class="signal"><text x="139.890625" y="240.65625" style="font-size: 16px; font-family: danielbd;"><tspan x="139.890625">Execute(key)</tspan></text><path d="M46.0,256.1C106.1,268.0 117.3,244.2 342.9,256.1" stroke="#000000" fill="none" style="stroke-width: 2; marker-end: url(&quot;#markerArrowOpen&quot;);"></path></g><g class="signal"><text x="366.46484375" y="286.6796875" style="font-size: 16px; font-family: danielbd;"><tspan x="366.46484375">Execute()</tspan></text><path d="M342.9,293.7C397.5,298.8 373.6,288.6 470.9,293.7" stroke="#000000" fill="none" style="stroke-width: 2; marker-end: url(&quot;#markerArrowOpen&quot;);"></path></g><g class="signal"><text x="297.09765625" y="324.2890625" style="font-size: 16px; font-family: danielbd;"><tspan x="296.28515625">Action()</tspan></text><path d="M470.9,331.3C254.2,342.7 339.4,319.9 185.7,331.3" stroke="#000000" fill="none" style="stroke-width: 2; marker-end: url(&quot;#markerArrowOpen&quot;);"></path></g></svg>