<?xml version="1.0" encoding="utf-8" standalone="no"?><!DOCTYPE svg PUBLIC "-//W3C//DTD SVG 20010904//EN" "http://www.w3.org/TR/2001/REC-SVG-20010904/DTD/svg10.dtd"><svg xmlns="http://www.w3.org/2000/svg" width="1237" height="301" xmlns:xlink="http://www.w3.org/1999/xlink"><source><![CDATA[anObjectStructure->aConcreteElementA: Accept(aVisitor)
aConcreteElementA->aConcreteVisitor: VisitConcreteElementA(aConcreteElementA)

anObjectStructure->aConcreteElementB: Accept(aVisitor)
aConcreteElementB->aConcreteVisitor: VisitConcreteElementB(aConcreteElementB)

]]></source><desc></desc><defs><marker viewBox="0 0 5 5" markerWidth="5" markerHeight="5" orient="auto" refX="5" refY="2.5" id="markerArrowBlock"><path d="M 0 0 L 5 2.5 L 0 5 z"></path></marker><marker viewBox="0 0 9.6 16" markerWidth="4" markerHeight="16" orient="auto" refX="9.6" refY="8" id="markerArrowOpen"><path d="M 9.6,8 1.92,16 0,13.7 5.76,8 0,2.286 1.92,0 9.6,8 z"></path></marker></defs><g class="title"></g><g class="actor"><path d="M10,20C61.4,27.3 69.0,12.7 191.3,20.0C189.7,26.7 193.0,54.6 191.3,61.6C91.3,68.9 141.8,54.4 10.0,61.6C11.7,30.0 8.3,40.9 10.0,20.0" stroke="#000000" fill="#ffffff" style="stroke-width: 2;"></path><text x="20" y="42.8125" style="font-size: 16px; font-family: danielbd;"><tspan x="20">anObjectStructure</tspan></text></g><g class="actor"><path d="M10,240.0625C147.8,247.3 53.5,232.8 191.3,240.1C193.0,273.4 189.7,259.1 191.3,281.7C103.4,288.9 55.6,274.4 10.0,281.7C8.3,268.6 11.7,251.2 10.0,240.1" stroke="#000000" fill="#ffffff" style="stroke-width: 2;"></path><text x="20" y="262.875" style="font-size: 16px; font-family: danielbd;"><tspan x="20">anObjectStructure</tspan></text></g><path d="M100.7,61.6C93.5,104.5 107.8,90.2 100.7,240.1" stroke="#000000" fill="none" style="stroke-width: 2;"></path><g class="actor"><path d="M211.34375,20C320.4,12.4 356.4,27.6 402.2,20.0C400.5,35.6 403.9,35.5 402.2,61.6C259.5,54.0 325.9,69.3 211.3,61.6C209.7,42.1 213.0,34.0 211.3,20.0" stroke="#000000" fill="#ffffff" style="stroke-width: 2;"></path><text x="221.34375" y="46.4140625" style="font-size: 16px; font-family: danielbd;"><tspan x="221.34375">aConcreteElementA</tspan></text></g><g class="actor"><path d="M211.34375,240.0625C356.4,232.4 257.3,247.7 402.2,240.1C400.5,253.6 403.9,268.5 402.2,281.7C257.1,289.3 250.7,274.1 211.3,281.7C213.0,274.2 209.7,246.7 211.3,240.1" stroke="#000000" fill="#ffffff" style="stroke-width: 2;"></path><text x="221.34375" y="266.4765625" style="font-size: 16px; font-family: danielbd;"><tspan x="221.34375">aConcreteElementA</tspan></text></g><path d="M306.8,61.6C313.9,197.2 299.6,210.7 306.8,240.1" stroke="#000000" fill="none" style="stroke-width: 2;"></path><g class="actor"><path d="M623.75,20C652.9,13.5 707.1,26.5 786.8,20.0C785.1,26.7 788.5,53.4 786.8,61.6C680.9,55.1 662.9,68.1 623.8,61.6C622.1,42.2 625.4,49.3 623.8,20.0" stroke="#000000" fill="#ffffff" style="stroke-width: 2;"></path><text x="633.75" y="45.6171875" style="font-size: 16px; font-family: danielbd;"><tspan x="633.75">aConcreteVisitor</tspan></text></g><g class="actor"><path d="M623.75,240.0625C649.8,233.5 662.9,246.6 786.8,240.1C785.1,271.6 788.5,264.8 786.8,281.7C696.1,275.2 660.1,288.2 623.8,281.7C625.4,260.7 622.1,256.3 623.8,240.1" stroke="#000000" fill="#ffffff" style="stroke-width: 2;"></path><text x="633.75" y="265.6796875" style="font-size: 16px; font-family: danielbd;"><tspan x="633.75">aConcreteVisitor</tspan></text></g><path d="M705.3,61.6C698.1,178.7 712.4,104.5 705.3,240.1" stroke="#000000" fill="none" style="stroke-width: 2;"></path><g class="actor"><path d="M1013.046875,20C1176.0,12.2 1108.3,27.8 1207.0,20.0C1205.4,51.6 1208.7,37.0 1207.0,61.6C1122.2,69.4 1059.6,53.9 1013.0,61.6C1014.7,55.0 1011.4,51.6 1013.0,20.0" stroke="#000000" fill="#ffffff" style="stroke-width: 2;"></path><text x="1023.046875" y="46.015625" style="font-size: 16px; font-family: danielbd;"><tspan x="1023.046875">aConcreteElementB</tspan></text></g><g class="actor"><path d="M1013.046875,240.0625C1097.5,232.3 1049.8,247.8 1207.0,240.1C1208.7,267.0 1205.4,258.0 1207.0,281.7C1132.1,273.9 1127.2,289.4 1013.0,281.7C1011.4,246.7 1014.7,261.6 1013.0,240.1" stroke="#000000" fill="#ffffff" style="stroke-width: 2;"></path><text x="1023.046875" y="266.078125" style="font-size: 16px; font-family: danielbd;"><tspan x="1023.046875">aConcreteElementB</tspan></text></g><path d="M1110.0,61.6C1102.9,140.7 1117.2,197.2 1110.0,240.1" stroke="#000000" fill="none" style="stroke-width: 2;"></path><g class="signal"><text x="137.91015625" y="90.2265625" style="font-size: 16px; font-family: danielbd;"><tspan x="137.09765625">Accept(aVisitor)</tspan></text><path d="M100.7,103.2C273.8,95.0 215.3,111.5 306.8,103.2" stroke="#000000" fill="none" style="stroke-width: 2; marker-end: url(&quot;#markerArrowBlock&quot;);"></path></g><g class="signal"><text x="316.7734375" y="133.8359375" style="font-size: 16px; font-family: danielbd;"><tspan x="316.7734375">VisitConcreteElementA(aConcreteElementA)</tspan></text><path d="M306.8,140.8C593.1,156.8 515.8,124.9 705.3,140.8" stroke="#000000" fill="none" style="stroke-width: 2; marker-end: url(&quot;#markerArrowBlock&quot;);"></path></g><g class="signal"><text x="539.54296875" y="169.4453125" style="font-size: 16px; font-family: danielbd;"><tspan x="538.73046875">Accept(aVisitor)</tspan></text><path d="M100.7,182.5C605.1,142.1 262.2,222.8 1110.0,182.5" stroke="#000000" fill="none" style="stroke-width: 2; marker-end: url(&quot;#markerArrowBlock&quot;);"></path></g><g class="signal"><text x="715.2734375" y="213.0546875" style="font-size: 16px; font-family: danielbd;"><tspan x="715.2734375">VisitConcreteElementB(aConcreteElementB)</tspan></text><path d="M1110.0,220.1C965.5,203.9 964.1,236.3 705.3,220.1" stroke="#000000" fill="none" style="stroke-width: 2; marker-end: url(&quot;#markerArrowBlock&quot;);"></path></g></svg>