<?xml version="1.0" encoding="utf-8" standalone="no"?><!DOCTYPE svg PUBLIC "-//W3C//DTD SVG 20010904//EN" "http://www.w3.org/TR/2001/REC-SVG-20010904/DTD/svg10.dtd"><svg xmlns="http://www.w3.org/2000/svg" width="687" height="382" xmlns:xlink="http://www.w3.org/1999/xlink"><source><![CDATA[aConcreteObserver->>aConcreteSubject: SetState()
aConcreteSubject->>aConcreteSubject: Notify()
aConcreteSubject->>aConcreteObserver: Update()
aConcreteObserver->>aConcreteSubject: GetState()
aConcreteSubject->>anotherConcreteObserver: Update()
anotherConcreteObserver->>aConcreteSubject: GetState()]]></source><desc></desc><defs><marker viewBox="0 0 5 5" markerWidth="5" markerHeight="5" orient="auto" refX="5" refY="2.5" id="markerArrowBlock"><path d="M 0 0 L 5 2.5 L 0 5 z"></path></marker><marker viewBox="0 0 9.6 16" markerWidth="4" markerHeight="16" orient="auto" refX="9.6" refY="8" id="markerArrowOpen"><path d="M 9.6,8 1.92,16 0,13.7 5.76,8 0,2.286 1.92,0 9.6,8 z"></path></marker></defs><g class="title"></g><g class="actor"><path d="M10,20C105.0,27.6 169.5,12.4 199.8,20.0C201.5,31.4 198.2,31.7 199.8,61.6C94.4,54.0 55.6,69.2 10.0,61.6C8.3,50.9 11.7,31.4 10.0,20.0" stroke="#000000" fill="#ffffff" style="stroke-width: 2;"></path><text x="20" y="45.6171875" style="font-size: 16px; font-family: danielbd;"><tspan x="20">aConcreteObserver</tspan></text></g><g class="actor"><path d="M10,320.890625C55.6,328.5 40.4,313.3 199.8,320.9C201.5,331.0 198.2,344.8 199.8,362.5C154.3,354.9 169.5,370.1 10.0,362.5C8.3,327.6 11.7,336.1 10.0,320.9" stroke="#000000" fill="#ffffff" style="stroke-width: 2;"></path><text x="20" y="346.5078125" style="font-size: 16px; font-family: danielbd;"><tspan x="20">aConcreteObserver</tspan></text></g><path d="M104.9,61.6C115.3,178.7 94.5,209.3 104.9,320.9" stroke="#000000" fill="none" style="stroke-width: 2;"></path><g class="actor"><path d="M219.828125,20C299.5,26.8 263.2,13.2 390.8,20.0C389.1,40.5 392.5,40.7 390.8,61.6C329.8,68.5 313.3,54.8 219.8,61.6C218.2,37.5 221.5,26.7 219.8,20.0" stroke="#000000" fill="#ffffff" style="stroke-width: 2;"></path><text x="229.828125" y="42.8125" style="font-size: 16px; font-family: danielbd;"><tspan x="229.828125">aConcreteSubject</tspan></text></g><g class="actor"><path d="M219.828125,320.890625C363.4,314.1 349.8,327.7 390.8,320.9C392.5,352.5 389.1,355.9 390.8,362.5C349.8,369.4 309.0,355.7 219.8,362.5C218.2,330.6 221.5,352.9 219.8,320.9" stroke="#000000" fill="#ffffff" style="stroke-width: 2;"></path><text x="229.828125" y="343.703125" style="font-size: 16px; font-family: danielbd;"><tspan x="229.828125">aConcreteSubject</tspan></text></g><path d="M305.3,61.6C294.9,261.4 315.7,252.6 305.3,320.9" stroke="#000000" fill="none" style="stroke-width: 2;"></path><g class="actor"><path d="M410.796875,20C450.2,29.9 553.1,10.1 657.1,20.0C655.4,54.1 658.8,26.7 657.1,61.6C479.0,51.8 480.5,71.5 410.8,61.6C409.1,28.5 412.5,55.0 410.8,20.0" stroke="#000000" fill="#ffffff" style="stroke-width: 2;"></path><text x="420.796875" y="46.4140625" style="font-size: 16px; font-family: danielbd;"><tspan x="420.796875">anotherConcreteObserver</tspan></text></g><g class="actor"><path d="M410.796875,320.890625C617.7,330.7 529.7,311.0 657.1,320.9C658.8,355.9 655.4,339.2 657.1,362.5C505.5,352.7 469.9,372.4 410.8,362.5C409.1,327.6 412.5,355.9 410.8,320.9" stroke="#000000" fill="#ffffff" style="stroke-width: 2;"></path><text x="420.796875" y="347.3046875" style="font-size: 16px; font-family: danielbd;"><tspan x="420.796875">anotherConcreteObserver</tspan></text></g><path d="M534.0,61.6C544.3,258.7 523.6,259.8 534.0,320.9" stroke="#000000" fill="none" style="stroke-width: 2;"></path><g class="signal"><text x="164.15234375" y="92.2265625" style="font-size: 16px; font-family: danielbd;"><tspan x="163.33984375">SetState()</tspan></text><path d="M104.9,99.2C165.3,91.2 273.2,107.3 305.3,99.2" stroke="#000000" fill="none" style="stroke-width: 2; marker-end: url(&quot;#markerArrowOpen&quot;);"></path></g><g class="signal"><text x="330.3125" y="135.84375" style="font-size: 16px; font-family: danielbd;"><tspan x="330.3125">Notify()</tspan></text><path d="M305.3,119.2C318.0,118.4 320.5,120.0 325.3,119.2" stroke="#000000" fill="none" style="stroke-width: 2;"></path><path d="M325.3,119.2C324.2,140.7 326.4,133.7 325.3,147.5" stroke="#000000" fill="none" style="stroke-width: 2;"></path><path d="M325.3,147.5C311.1,146.7 310.1,148.3 305.3,147.5" stroke="#000000" fill="none" style="stroke-width: 2; marker-end: url(&quot;#markerArrowOpen&quot;);"></path></g><g class="signal"><text x="167.22265625" y="171.0546875" style="font-size: 16px; font-family: danielbd;"><tspan x="167.22265625">Update()</tspan></text><path d="M305.3,184.1C137.0,192.1 160.3,176.0 104.9,184.1" stroke="#000000" fill="none" style="stroke-width: 2; marker-end: url(&quot;#markerArrowOpen&quot;);"></path></g><g class="signal"><text x="160.66015625" y="214.6640625" style="font-size: 16px; font-family: danielbd;"><tspan x="159.84765625">GetState()</tspan></text><path d="M104.9,221.7C257.2,229.7 164.5,213.7 305.3,221.7" stroke="#000000" fill="none" style="stroke-width: 2; marker-end: url(&quot;#markerArrowOpen&quot;);"></path></g><g class="signal"><text x="381.7421875" y="250.2734375" style="font-size: 16px; font-family: danielbd;"><tspan x="381.7421875">Update()</tspan></text><path d="M305.3,263.3C426.8,254.1 459.6,272.4 534.0,263.3" stroke="#000000" fill="none" style="stroke-width: 2; marker-end: url(&quot;#markerArrowOpen&quot;);"></path></g><g class="signal"><text x="375.1796875" y="293.8828125" style="font-size: 16px; font-family: danielbd;"><tspan x="374.3671875">GetState()</tspan></text><path d="M534.0,300.9C377.8,310.0 421.6,291.7 305.3,300.9" stroke="#000000" fill="none" style="stroke-width: 2; marker-end: url(&quot;#markerArrowOpen&quot;);"></path></g></svg>